<?xml version="1.0" encoding="UTF-8"?>
<!DOCTYPE svg PUBLIC "-//W3C//DTD SVG 1.1//EN" "http://www.w3.org/Graphics/SVG/1.1/DTD/svg11.dtd">
<!-- Creator: CorelDRAW -->
<svg xmlns="http://www.w3.org/2000/svg" xml:space="preserve" width="5.5033mm" height="4.977mm" version="1.1" style="shape-rendering:geometricPrecision; text-rendering:geometricPrecision; image-rendering:optimizeQuality; fill-rule:evenodd; clip-rule:evenodd"
viewBox="0 0 21.72 19.64"
 xmlns:xlink="http://www.w3.org/1999/xlink"
 xmlns:xodm="http://www.corel.com/coreldraw/odm/2003">
 <defs>
  <style type="text/css">
   <![CDATA[
    .fil0 {fill:white}
   ]]>
  </style>
 </defs>
 <g id="Capa_x0020_1">
  <metadata id="CorelCorpID_0Corel-Layer"/>
  <path class="fil0" d="M10.86 0c6,0 10.86,4.86 10.86,10.86 0,1.44 -0.28,2.82 -0.79,4.08 -0.34,-0.04 -0.65,-0.13 -0.9,-0.28 -0.33,-0.12 -0.84,-0.54 -1,-0.74 -0.73,-0.9 -0.67,-1.2 -0.98,-1.62 -0.1,-0.14 -0.31,-0.34 -0.43,-0.44 -0.44,-0.33 -0.57,-0.41 -1.05,-0.68 -1.42,-0.82 -1.49,-0.08 -2.81,-0.66 -0.41,-0.18 -0.73,-0.44 -1.04,-0.69l-0.95 -0.77c0.04,-0.04 0.05,-0.04 0.08,-0.09 -0.06,-0.07 -0.21,-0.11 -0.32,-0.14 0.04,-0.08 0.07,-0.05 0.11,-0.13 -0.08,-0.07 -0.17,-0.07 -0.2,-0.17l0.2 -0.06c-0.12,-0.08 -0.36,-0.07 -0.48,-0.16 0.03,-0.04 0.07,-0.05 0.1,-0.07 0.07,-0.05 0.03,0.01 0.06,-0.07 -0.17,-0.12 -0.4,-0.06 -0.63,-0.07 0.02,-0.07 0.09,-0.09 0.15,-0.15 -0.09,-0.1 -0.34,-0.09 -0.44,-0.23l0.15 -0.05c-0.05,-0.1 -0.21,-0.19 -0.33,-0.25 0.05,-0.08 -0.02,0.04 0.09,-0.07 -0.06,-0.04 -0.06,-0.05 -0.1,-0.09 -0.03,-0.03 -0.06,-0.04 -0.1,-0.08 -0.18,-0.14 -0.45,-0.47 -0.45,-0.66 0.1,-0.01 0.18,-0 0.27,0.02 0.22,0.06 0.18,0.07 0.22,0.01 0.09,-0.13 -0.14,-0.5 -0.21,-0.6 -0.14,-0.22 -0.31,-0.32 -0.4,-0.44 -0.38,-0.46 -0.24,-0.62 -0.6,-1.09 -0.28,-0.36 -0.5,-0.2 -0.88,-0.83l-0.62 -1.06c-0.14,-0.01 -0.21,0.04 -0.28,0.11 -0.46,0.49 -0.21,0.33 -0.34,0.77 -0.16,-0.01 -0.09,-0.16 -0.26,-0.17 -0.14,0.13 -0.04,0.62 -0.02,0.84 0.06,0.64 0.11,1.24 0.07,1.88 -0.03,0.61 -0.15,0.61 -0.2,0.78 0.07,0.05 0.14,0.08 0.08,0.2 -0.02,0.03 -0.13,0.15 -0.15,0.17l0.13 0.05c-0.27,0.36 -0.04,0.41 -0.33,0.78l0.19 -0.06c-0.02,0.2 -0.15,0.38 -0.18,0.53 -0.03,0.13 0.01,0.11 0.03,0.18 0.03,0.14 -0.2,0.45 -0.23,0.69 0.12,-0.06 0.06,-0.08 0.17,-0.1l-0.01 0.42c0.09,-0.03 0.02,-0.06 0.14,-0.05 0.15,0.21 0.07,0.91 0.07,1.21l0.15 -0.02c0.07,0.33 -0.2,0.56 0.23,0.48 0.01,0.1 0.02,0.2 0.04,0.3 0.05,0.28 0.05,0.23 0.34,0.28 0.04,0.14 -0.03,0.25 0.04,0.42l0.09 0c0.02,0.1 0.05,0.2 0.1,0.28l0.12 -0.03 0.12 0.38c0.14,0.05 0.05,-0.04 0.18,-0.04 0.04,0.07 0.03,0.08 0.04,0.16 0.04,0.26 0.08,0.01 0.13,0.24 0.02,0.08 0,0.08 0.06,0.14 0.12,-0.03 0.03,-0.05 0.14,-0.1 0.09,0.15 0.1,0.31 0.13,0.5 0.04,0.26 0.07,0.28 0.16,0.46 0.1,-0.03 0.06,-0.05 0.1,-0.16 0.11,0.15 0.4,1.32 0.37,1.55 0.07,0.1 0.05,1.04 0.05,1.25 -0,0.14 -0.08,1.09 -0.2,1.1l-0.08 0.01c-1.81,0.4 -3.4,0.8 -4.81,1.18 -2.33,-1.99 -3.8,-4.95 -3.8,-8.25 0,-6 4.86,-10.86 10.86,-10.86zm9.08 16.82c-0.21,0.32 -0.44,0.63 -0.68,0.93 -0.01,-0.15 -0.02,-0.32 -0.05,-0.39 -0.04,-0.12 -0.66,-0.69 -0.9,-1.11 -0.1,-0.18 -0.32,-0.86 -0.16,-1.08 0.19,0.08 0.02,0.47 0.23,0.57 0.09,-0.08 0.04,-0.16 0.12,-0.26 0.11,0.14 0.18,0.61 0.31,0.71 0.07,-0.12 0.01,-0.26 0.11,-0.36 0.25,0.09 0.2,0.54 0.5,0.71 0.06,-0.09 0.04,-0.16 0.11,-0.25 0.06,0.02 0.04,0 0.09,0.07 0.09,0.14 0.17,0.33 0.31,0.45zm-1.39 1.71c-0.24,0.24 -0.48,0.46 -0.74,0.68 -0.33,-0.04 -0.71,-0.11 -1.12,-0.15 0.03,-0.22 0.1,-0.42 0.12,-0.64 0.05,-0.43 -0.13,-0.4 -0.23,-0.49 -0.24,-0.2 -0.3,-0.8 -0.25,-1.18l0.35 0.28c0.13,0.09 0.25,0.14 0.4,0.22 0.71,0.37 1.15,0.66 1.48,1.29zm-6.57 -3.83c0.21,-0.04 0.29,-0 0.49,-0.1 0.13,-0.06 0.28,-0.16 0.45,-0.1 0.1,0.03 0.28,0.2 0.34,0.25 0.3,0.26 0.43,0.8 0.56,1.17 0.1,0.3 0.21,0.55 0.35,0.82 0.26,0.52 0.66,0.92 1.11,1.21 0.24,0.15 0.46,0.31 0.59,0.57 0.07,0.14 0.1,0.3 0.09,0.48 -0.01,0.12 -0.02,0.12 -0.1,0.18 -1.12,1 -1.92,0.07 -2.79,-0.2 -0.76,-0.25 -1.22,-0.56 -1.73,-0.28 0.04,-0.15 0.05,-0.34 0.09,-0.49 0.04,-0.16 0.1,-0.26 0.13,-0.44 0.03,-0.22 0.01,-0.65 0.06,-1.1 0.05,-0.36 0.08,-0.69 0.1,-1.06 0.01,-0.16 -0.02,-0.66 0.13,-0.76 0.13,-0.08 0.06,-0.02 0.12,-0.15zm-2.51 2.76c0.02,-0.66 0.21,-1.53 0.37,-2.17 0.1,-0.38 0.01,-0.39 0.41,-0.43 0.4,-0.04 0.36,0.08 0.41,0.43 0.14,0.95 0.24,1.18 0.26,2.28 -0.01,0.15 -0,0.31 -0.01,0.46 -0.01,0.17 -0.03,0.22 -0.14,0.31 -0.16,-0.35 -1.55,-0.16 -1.51,-0.33 0.01,-0.05 0.05,-0.13 0.08,-0.18 0.05,-0.1 0.08,-0.25 0.13,-0.36z"/>
 </g>
</svg>
